<svg xmlns="http://www.w3.org/2000/svg" xmlns:xlink="http://www.w3.org/1999/xlink" width="330" zoomAndPan="magnify" viewBox="0 0 247.5 323.999988" height="432" preserveAspectRatio="xMidYMid meet" version="1.0"><defs><clipPath id="89c805a292"><path d="M 1 0.328125 L 244 0.328125 L 244 323.671875 L 1 323.671875 Z M 1 0.328125 " clip-rule="nonzero"/></clipPath><clipPath id="360ee4806e"><path d="M 31.082031 36.566406 L 185.863281 36.566406 L 185.863281 287.441406 L 31.082031 287.441406 Z M 31.082031 36.566406 " clip-rule="nonzero"/></clipPath></defs><g clip-path="url(#89c805a292)"><path fill="#673ab7" d="M 1.628906 318.019531 L 1.628906 32.445312 C 1.628906 29.316406 3.554688 24.925781 5.777344 22.640625 L 23.917969 4.476562 C 26.203125 2.191406 30.648438 0.328125 33.832031 0.328125 L 238.085938 0.328125 C 241.269531 0.328125 243.851562 2.914062 243.851562 5.980469 L 243.851562 291.554688 C 243.851562 294.683594 241.929688 299.074219 239.707031 301.359375 L 221.566406 319.523438 C 219.28125 321.808594 214.835938 323.671875 211.652344 323.671875 L 7.398438 323.671875 C 4.214844 323.671875 1.628906 321.085938 1.628906 318.019531 Z M 1.628906 318.019531 " fill-opacity="1" fill-rule="evenodd"/></g><path fill="#ffffff" d="M 220.785156 29.257812 L 220.785156 303.945312 L 232.320312 292.398438 L 232.320312 11.875 L 32.871094 11.875 L 21.335938 23.421875 L 215.015625 23.421875 C 218.199219 23.421875 220.785156 26.007812 220.785156 29.257812 Z M 220.785156 29.257812 " fill-opacity="1" fill-rule="evenodd"/><g clip-path="url(#360ee4806e)"><path fill="#ffffff" d="M 144.664062 36.566406 C 156.5 45.367188 163.308594 65.824219 152.351562 80.066406 C 143.589844 91.457031 124.933594 95.785156 111.617188 101.183594 C 98.300781 106.574219 81.929688 110.1875 71.40625 119.96875 C 58.914062 131.585938 61.21875 148.046875 68.628906 157.503906 C 78.632812 170.261719 95.703125 176.597656 113.980469 183.433594 C 142.867188 194.234375 182.140625 200.015625 185.644531 228.796875 C 186.808594 238.367188 184.109375 257.285156 159.054688 258.890625 C 134.96875 260.433594 108.640625 260.851562 112.101562 287.441406 C 99.082031 273.0625 101.492188 244.355469 138.179688 244.960938 C 145.457031 245.078125 154.226562 246.308594 158.78125 240.632812 C 162.460938 236.046875 160.503906 228.671875 156.714844 223.609375 C 135.679688 195.484375 63.230469 204.144531 39.035156 169.84375 C 26.9375 152.691406 29.074219 130.867188 42.539062 115.933594 C 54.769531 102.378906 78.011719 94.371094 106.8125 86.269531 C 119.546875 82.691406 133.972656 77.386719 140.9375 72.761719 C 157.007812 62.097656 151.683594 45.070312 144.664062 36.566406 " fill-opacity="1" fill-rule="nonzero"/></g></svg>